<svg xmlns="http://www.w3.org/2000/svg" xmlns:xlink="http://www.w3.org/1999/xlink" width="304.611" height="173.725" viewBox="0 0 304.611 173.725">
  <defs>
    <filter id="Rectangle_13645" x="0" y="0" width="304.611" height="173.725" filterUnits="userSpaceOnUse">
      <feOffset dy="3" input="SourceAlpha"/>
      <feGaussianBlur stdDeviation="3" result="blur"/>
      <feFlood flood-opacity="0.161"/>
      <feComposite operator="in" in2="blur"/>
      <feComposite in="SourceGraphic"/>
    </filter>
  </defs>
  <g id="Group_51306" data-name="Group 51306" transform="translate(-354.906 -4655.918)">
    <g transform="matrix(1, 0, 0, 1, 354.91, 4655.92)" filter="url(#Rectangle_13645)">
      <rect id="Rectangle_13645-2" data-name="Rectangle 13645" width="286.611" height="155.725" rx="6" transform="translate(9 6)" fill="#fff"/>
    </g>
    <g id="Group_17581" data-name="Group 17581" transform="translate(401.967 4704.912)">
      <g id="Group_17404" data-name="Group 17404" transform="translate(0 0)">
        <g id="Group_1" data-name="Group 1" transform="translate(0 28.874)">
          <path id="Path_1" data-name="Path 1" d="M49.833,144.528h6.784l7.4,18.983H57.073l-.992-2.789H50.048l-.938,2.789H42.353Zm3.3,6.622-1.555,4.692h3.083Z" transform="translate(-42.353 -143.779)" fill="#187c9c"/>
          <path id="Path_2" data-name="Path 2" d="M100.023,153.013a10.252,10.252,0,0,1,.8-4.129,9.486,9.486,0,0,1,2.2-3.164,9.716,9.716,0,0,1,3.284-2.024,11.374,11.374,0,0,1,4.035-.711,12.089,12.089,0,0,1,4.156.711,9.619,9.619,0,0,1,3.271,1.917l-3.915,4.719a3.458,3.458,0,0,0-1.341-1.059,4.329,4.329,0,0,0-1.8-.362,3.968,3.968,0,0,0-1.5.282,3.526,3.526,0,0,0-1.22.818,3.79,3.79,0,0,0-.818,1.3,4.688,4.688,0,0,0-.295,1.7,4.308,4.308,0,0,0,.308,1.676,4.015,4.015,0,0,0,.831,1.273,3.52,3.52,0,0,0,1.22.818,3.9,3.9,0,0,0,1.474.282,3.724,3.724,0,0,0,1.89-.456,4.009,4.009,0,0,0,1.247-1.072l3.915,4.692a9.447,9.447,0,0,1-3.164,2.051,11.939,11.939,0,0,1-8.3.04,9.779,9.779,0,0,1-3.284-2.051,9.672,9.672,0,0,1-2.2-3.164A10.088,10.088,0,0,1,100.023,153.013Z" transform="translate(-79.968 -142.773)"/>
          <path id="Path_3" data-name="Path 3" d="M160.646,163.511h-6.381V149.917H149.6v-5.389h15.712v5.389h-4.665Z" transform="translate(-112.304 -143.779)"/>
          <path id="Path_4" data-name="Path 4" d="M198.866,144.528H205.3v18.983h-6.435Z" transform="translate(-144.439 -143.779)"/>
          <path id="Path_5" data-name="Path 5" d="M222,152.906a10.163,10.163,0,0,1,.8-4.116,9.148,9.148,0,0,1,2.212-3.123,9.833,9.833,0,0,1,3.338-1.984,12.9,12.9,0,0,1,8.365,0,9.981,9.981,0,0,1,3.351,1.984,9.06,9.06,0,0,1,2.226,3.123,10.157,10.157,0,0,1,.8,4.116,10.443,10.443,0,0,1-.8,4.156,9.383,9.383,0,0,1-2.226,3.2,9.99,9.99,0,0,1-3.351,2.051,12.444,12.444,0,0,1-8.365,0,9.843,9.843,0,0,1-3.338-2.051,9.477,9.477,0,0,1-2.212-3.2A10.449,10.449,0,0,1,222,152.906Zm6.784,0a5,5,0,0,0,.282,1.716,4.117,4.117,0,0,0,.777,1.341,3.4,3.4,0,0,0,1.193.871,3.666,3.666,0,0,0,1.5.308,3.541,3.541,0,0,0,2.681-1.18,4,4,0,0,0,.791-1.341,5.012,5.012,0,0,0,.281-1.716,4.821,4.821,0,0,0-.281-1.676,3.6,3.6,0,0,0-.791-1.287,3.681,3.681,0,0,0-2.681-1.113,3.817,3.817,0,0,0-1.5.295,3.5,3.5,0,0,0-1.193.818,3.693,3.693,0,0,0-.777,1.287A4.812,4.812,0,0,0,228.78,152.906Z" transform="translate(-159.525 -142.773)"/>
          <path id="Path_6" data-name="Path 6" d="M287.3,144.528h6.354l5.416,9.625h.107l-.268-9.625h6.059v18.983h-6.515l-5.255-9.062h-.108l.268,9.062H287.3Z" transform="translate(-202.12 -143.779)"/>
          <path id="Path_7" data-name="Path 7" d="M342.5,152.4a10.253,10.253,0,0,1,.8-4.129,9.49,9.49,0,0,1,2.2-3.164,9.715,9.715,0,0,1,3.284-2.024,11.373,11.373,0,0,1,4.035-.711,12.088,12.088,0,0,1,4.156.711A9.624,9.624,0,0,1,360.25,145l-3.915,4.719A3.452,3.452,0,0,0,355,148.662a4.33,4.33,0,0,0-1.8-.362,3.968,3.968,0,0,0-1.5.281,3.532,3.532,0,0,0-1.22.818,3.788,3.788,0,0,0-.818,1.3,4.689,4.689,0,0,0-.295,1.7,4.306,4.306,0,0,0,.308,1.675,4.016,4.016,0,0,0,.831,1.274,3.525,3.525,0,0,0,1.22.818,3.9,3.9,0,0,0,1.475.281,3.721,3.721,0,0,0,1.89-.456,4,4,0,0,0,1.247-1.072l3.915,4.692a9.448,9.448,0,0,1-3.164,2.051,11.942,11.942,0,0,1-8.3.04,9.779,9.779,0,0,1-3.284-2.051,9.673,9.673,0,0,1-2.2-3.164A10.086,10.086,0,0,1,342.5,152.4Z" transform="translate(-238.125 -142.374)" fill="#187c9c"/>
          <path id="Path_8" data-name="Path 8" d="M393.447,152.295a10.157,10.157,0,0,1,.8-4.116,9.149,9.149,0,0,1,2.212-3.124,9.833,9.833,0,0,1,3.338-1.984,12.894,12.894,0,0,1,8.365,0,9.987,9.987,0,0,1,3.352,1.984,9.066,9.066,0,0,1,2.225,3.124,10.149,10.149,0,0,1,.8,4.116,10.435,10.435,0,0,1-.8,4.156,9.384,9.384,0,0,1-2.225,3.2,9.992,9.992,0,0,1-3.352,2.051,12.445,12.445,0,0,1-8.365,0,9.839,9.839,0,0,1-3.338-2.051,9.473,9.473,0,0,1-2.212-3.2A10.443,10.443,0,0,1,393.447,152.295Zm6.783,0a5,5,0,0,0,.281,1.716,4.123,4.123,0,0,0,.777,1.341,3.393,3.393,0,0,0,1.193.871,3.664,3.664,0,0,0,1.5.308,3.541,3.541,0,0,0,2.681-1.18,4.007,4.007,0,0,0,.791-1.341,5,5,0,0,0,.282-1.716,4.812,4.812,0,0,0-.282-1.676,3.6,3.6,0,0,0-.791-1.287,3.681,3.681,0,0,0-2.681-1.113,3.814,3.814,0,0,0-1.5.295,3.5,3.5,0,0,0-1.193.818,3.7,3.7,0,0,0-.777,1.287A4.808,4.808,0,0,0,400.23,152.295Z" transform="translate(-271.355 -142.374)"/>
          <path id="Path_9" data-name="Path 9" d="M458.751,143.916h6.435V157.4h6.3v5.5H458.751Z" transform="translate(-313.949 -143.38)"/>
          <path id="Path_10" data-name="Path 10" d="M499.537,143.916h6.435V157.4h6.3v5.5H499.537Z" transform="translate(-340.552 -143.38)"/>
          <path id="Path_11" data-name="Path 11" d="M544.565,143.916h6.784l7.4,18.983H551.8l-.992-2.789H544.78l-.938,2.789h-6.757Zm3.3,6.623-1.555,4.692h3.084Z" transform="translate(-365.043 -143.38)"/>
          <path id="Path_12" data-name="Path 12" d="M614.108,153.032a5.125,5.125,0,0,1,1.314.523,4.729,4.729,0,0,1,1.152.911,4.179,4.179,0,0,1,.8,1.274,4.236,4.236,0,0,1,.295,1.609,5.034,5.034,0,0,1-.63,2.614,5.086,5.086,0,0,1-1.663,1.716,7.079,7.079,0,0,1-2.359.938,13.072,13.072,0,0,1-2.721.282h-8.607V143.916h7.8a18.533,18.533,0,0,1,2.453.175,8.041,8.041,0,0,1,2.4.7,4.7,4.7,0,0,1,1.823,1.528,4.419,4.419,0,0,1,.724,2.641,4.01,4.01,0,0,1-.764,2.52,4.547,4.547,0,0,1-2.024,1.475Zm-6.462-4.156v2.332h1.716a1.839,1.839,0,0,0,1.1-.308,1.094,1.094,0,0,0,.429-.952.874.874,0,0,0-.455-.8,2.373,2.373,0,0,0-1.207-.268Zm0,6.435v2.574h1.9a2.049,2.049,0,0,0,1.22-.335,1.127,1.127,0,0,0,.469-.979.929.929,0,0,0-.2-.617,1.527,1.527,0,0,0-.5-.389,2.187,2.187,0,0,0-.63-.2,3.994,3.994,0,0,0-.63-.054Z" transform="translate(-407.184 -143.38)"/>
        </g>
        <g id="Group_10" data-name="Group 10" transform="translate(0)">
          <path id="Path_13" data-name="Path 13" d="M159.884,83.635l.294,10.725h-5.952V75.377h8.348l3.436,10.215h.134l2.98-10.215h8.617V94.36h-6.22l.187-10.671-.161-.027-3.539,10.7h-4.5l-3.486-10.725Z" transform="translate(-115.322 -69.801)"/>
          <path id="Path_14" data-name="Path 14" d="M234.516,83.635l.295,10.725h-5.952V75.377h8.348l3.436,10.215h.134l2.979-10.215h8.617V94.36h-6.22l.188-10.671-.161-.027-3.539,10.7h-4.5L234.65,83.635Z" transform="translate(-164.002 -69.801)"/>
          <path id="Path_15" data-name="Path 15" d="M310.669,95.157a11.047,11.047,0,0,1-3.874-.617,7.769,7.769,0,0,1-2.748-1.689,6.727,6.727,0,0,1-1.635-2.534,9.07,9.07,0,0,1-.537-3.151V75.638h6.382V86.47a3.167,3.167,0,0,0,.657,2.132,2.654,2.654,0,0,0,3.727,0,3.168,3.168,0,0,0,.657-2.132V75.638h6.355V87.167a8.518,8.518,0,0,1-.577,3.151,7.008,7.008,0,0,1-1.7,2.534,8.013,8.013,0,0,1-2.8,1.689A11.277,11.277,0,0,1,310.669,95.157Z" transform="translate(-211.626 -69.971)"/>
          <path id="Path_16" data-name="Path 16" d="M359.314,75.638h6.355l5.415,9.625h.108l-.268-9.625h6.06V94.621h-6.515l-5.255-9.062h-.107l.268,9.062h-6.06Z" transform="translate(-249.091 -69.971)"/>
          <path id="Path_17" data-name="Path 17" d="M414.132,75.638h6.435V94.621h-6.435Z" transform="translate(-284.846 -69.971)"/>
          <path id="Path_18" data-name="Path 18" d="M447.769,94.621h-6.381V81.027h-4.665V75.638h15.712v5.389h-4.665Z" transform="translate(-299.581 -69.971)"/>
          <path id="Path_19" data-name="Path 19" d="M491.665,94.621h-6.381V86.845l-7.159-11.207h7.7l3,5.577,2.869-5.577H499.2l-7.534,11.207Z" transform="translate(-326.586 -69.971)"/>
          <g id="Group_9" data-name="Group 9" transform="translate(12.84)">
            <g id="Group_2" data-name="Group 2" transform="translate(15.262 16.846)">
              <path id="Path_20" data-name="Path 20" d="M130.156,108.306a7.415,7.415,0,0,1,4.1,2.161c2,1.8,3.067,3.887,2.377,4.654a1,1,0,0,1-.776.284,7.416,7.416,0,0,1-4.1-2.161c-2-1.8-3.067-3.887-2.377-4.654a1,1,0,0,1,.777-.284m0-.522a1.492,1.492,0,0,0-1.164.456c-1.05,1.166.42,3.595,2.415,5.391a7.807,7.807,0,0,0,4.45,2.295,1.491,1.491,0,0,0,1.164-.456c1.05-1.166-.42-3.595-2.415-5.391a7.807,7.807,0,0,0-4.449-2.295Z" transform="translate(-126.738 -107.784)" fill="#0a51a1"/>
              <path id="Path_21" data-name="Path 21" d="M127.623,110.464c.974,0,2.552,1.188,3.87,3,1.584,2.18,2.192,4.44,1.357,5.046a.847.847,0,0,1-.51.151c-.974,0-2.552-1.188-3.869-3-1.584-2.18-2.192-4.44-1.357-5.046a.846.846,0,0,1,.51-.151m0-.522a1.359,1.359,0,0,0-.817.25c-.591.429-.742,1.314-.426,2.491a10.522,10.522,0,0,0,1.667,3.285c1.419,1.954,3.1,3.216,4.292,3.216a1.359,1.359,0,0,0,.817-.25c1.269-.922.336-3.6-1.242-5.775-1.419-1.954-3.1-3.216-4.292-3.216Z" transform="translate(-125.156 -109.192)" fill="#0a51a1"/>
              <path id="Path_22" data-name="Path 22" d="M124.638,112.037c.965,0,2.393,1.559,3.375,3.764,1.1,2.462,1.221,4.8.278,5.218a.771.771,0,0,1-.317.065c-.965,0-2.393-1.558-3.375-3.763-1.1-2.462-1.221-4.8-.278-5.219a.771.771,0,0,1,.317-.065m0-.522a1.29,1.29,0,0,0-.529.11c-1.433.638-1.078,3.455.014,5.907.9,2.027,2.444,4.073,3.851,4.073a1.293,1.293,0,0,0,.529-.11c1.433-.638,1.078-3.455-.014-5.907-.9-2.027-2.443-4.073-3.851-4.073Z" transform="translate(-123.163 -110.218)" fill="#0a51a1"/>
            </g>
            <g id="Group_3" data-name="Group 3" transform="translate(17.823 11.276)">
              <path id="Path_23" data-name="Path 23" d="M138.92,92.291c2.078,0,3.664.562,3.754,1.417.108,1.026-1.978,2.087-4.658,2.368a12.5,12.5,0,0,1-1.3.069c-2.078,0-3.664-.562-3.754-1.417-.108-1.026,1.978-2.086,4.658-2.368a12.5,12.5,0,0,1,1.3-.069m0-.522a12.927,12.927,0,0,0-1.35.072,10.514,10.514,0,0,0-3.557.959c-1.086.552-1.642,1.256-1.566,1.983.12,1.145,1.8,1.884,4.272,1.884a13.027,13.027,0,0,0,1.35-.072,10.53,10.53,0,0,0,3.557-.959c1.086-.552,1.642-1.256,1.566-1.983-.12-1.145-1.8-1.884-4.273-1.884Z" transform="translate(-131.776 -91.769)" fill="#01a0c6"/>
              <path id="Path_24" data-name="Path 24" d="M136.72,97.879a12.4,12.4,0,0,1,1.3.069c2.681.282,4.766,1.342,4.658,2.368-.09.855-1.675,1.417-3.754,1.417a12.493,12.493,0,0,1-1.3-.069c-2.68-.282-4.766-1.342-4.658-2.368.09-.855,1.676-1.417,3.754-1.417m0-.522c-2.475,0-4.152.74-4.272,1.884-.077.726.48,1.431,1.566,1.983a10.514,10.514,0,0,0,3.557.959,12.93,12.93,0,0,0,1.35.072c2.475,0,4.152-.74,4.273-1.884.076-.726-.48-1.431-1.566-1.983a10.53,10.53,0,0,0-3.557-.959,13.023,13.023,0,0,0-1.35-.072Z" transform="translate(-131.776 -95.414)" fill="#01a0c6"/>
              <path id="Path_25" data-name="Path 25" d="M134.434,102.185a10.5,10.5,0,0,1,3.139.554c2.564.833,4.383,2.3,4.064,3.285-.176.543-.971.822-2.08.822a10.5,10.5,0,0,1-3.139-.554c-2.564-.833-4.383-2.3-4.064-3.285.176-.543.971-.822,2.08-.822m0-.522c-1.413,0-2.328.42-2.576,1.183-.226.694.172,1.5,1.119,2.265a10.514,10.514,0,0,0,3.28,1.677,11.085,11.085,0,0,0,3.3.579c1.413,0,2.328-.42,2.576-1.183.485-1.492-1.846-3.113-4.4-3.942a11.1,11.1,0,0,0-3.3-.579Z" transform="translate(-131.355 -98.222)" fill="#01a0c6"/>
              <path id="Path_26" data-name="Path 26" d="M132.369,105.571a8.7,8.7,0,0,1,3.943,1.31c2.334,1.348,3.809,3.164,3.292,4.058a1.322,1.322,0,0,1-1.217.488,8.7,8.7,0,0,1-3.943-1.31c-2.334-1.348-3.809-3.165-3.292-4.058a1.321,1.321,0,0,1,1.217-.488m0-.522a1.746,1.746,0,0,0-1.669.749c-.365.633-.144,1.5.624,2.448a10.522,10.522,0,0,0,2.859,2.323,9.248,9.248,0,0,0,4.2,1.38,1.746,1.746,0,0,0,1.669-.749c.785-1.359-1.158-3.428-3.483-4.771a9.25,9.25,0,0,0-4.2-1.38Z" transform="translate(-130.528 -100.431)" fill="#01a0c6"/>
            </g>
            <g id="Group_4" data-name="Group 4" transform="translate(16.324 2.557)">
              <path id="Path_27" data-name="Path 27" d="M132.339,67.216a.85.85,0,0,1,.51.151c.835.607.227,2.866-1.357,5.047-1.318,1.814-2.9,3-3.87,3a.848.848,0,0,1-.51-.151c-.835-.606-.227-2.866,1.357-5.046,1.317-1.813,2.9-3,3.869-3m0-.522c-1.188,0-2.872,1.262-4.292,3.216a10.522,10.522,0,0,0-1.667,3.284c-.316,1.177-.165,2.061.426,2.491a1.359,1.359,0,0,0,.817.25c1.188,0,2.872-1.262,4.292-3.216,1.578-2.172,2.511-4.853,1.242-5.775a1.358,1.358,0,0,0-.817-.25Z" transform="translate(-126.218 -66.694)" fill="#018d54"/>
              <path id="Path_28" data-name="Path 28" d="M135.857,72.536a1,1,0,0,1,.776.284c.691.767-.373,2.85-2.377,4.654a7.416,7.416,0,0,1-4.1,2.161,1,1,0,0,1-.777-.284c-.69-.767.374-2.85,2.377-4.654a7.411,7.411,0,0,1,4.1-2.161m0-.522a7.807,7.807,0,0,0-4.449,2.295c-2,1.8-3.465,4.225-2.415,5.391a1.492,1.492,0,0,0,1.164.456,7.807,7.807,0,0,0,4.449-2.295c2-1.8,3.465-4.225,2.415-5.391a1.492,1.492,0,0,0-1.164-.456Z" transform="translate(-127.8 -70.164)" fill="#018d54"/>
              <path id="Path_29" data-name="Path 29" d="M138.388,78.843a1.322,1.322,0,0,1,1.217.488c.516.894-.958,2.71-3.292,4.058a8.7,8.7,0,0,1-3.943,1.31,1.322,1.322,0,0,1-1.217-.488c-.516-.893.958-2.71,3.292-4.058a8.7,8.7,0,0,1,3.943-1.31m0-.522a9.247,9.247,0,0,0-4.2,1.38,10.522,10.522,0,0,0-2.859,2.323c-.768.946-.989,1.816-.624,2.448a1.746,1.746,0,0,0,1.669.749,9.249,9.249,0,0,0,4.2-1.38c2.325-1.342,4.268-3.412,3.483-4.771a1.746,1.746,0,0,0-1.669-.749Z" transform="translate(-129.029 -74.278)" fill="#018d54"/>
              <path id="Path_30" data-name="Path 30" d="M139.557,85.666c1.109,0,1.9.279,2.08.822.319.981-1.5,2.452-4.064,3.285a10.491,10.491,0,0,1-3.139.554c-1.109,0-1.9-.28-2.08-.822-.319-.981,1.5-2.452,4.064-3.285a10.5,10.5,0,0,1,3.139-.554m0-.522a11.1,11.1,0,0,0-3.3.579,10.522,10.522,0,0,0-3.28,1.678c-.948.766-1.345,1.57-1.119,2.265.248.763,1.163,1.183,2.576,1.183a11.1,11.1,0,0,0,3.3-.579c2.553-.829,4.884-2.45,4.4-3.942-.248-.763-1.163-1.183-2.576-1.183Z" transform="translate(-129.857 -78.728)" fill="#018d54"/>
            </g>
            <g id="Group_5" data-name="Group 5" transform="translate(10.078)">
              <path id="Path_31" data-name="Path 31" d="M116.845,59.864c1.032,0,1.868,2.185,1.868,4.881s-.836,4.88-1.868,4.88-1.868-2.185-1.868-4.88.836-4.881,1.868-4.881m0-.522c-1.569,0-2.39,2.718-2.39,5.4s.821,5.4,2.39,5.4,2.39-2.718,2.39-5.4-.821-5.4-2.39-5.4Z" transform="translate(-112.3 -59.342)" fill="#99cf16"/>
              <path id="Path_32" data-name="Path 32" d="M122.846,60.709a.731.731,0,0,1,.153.016c1.01.215,1.373,2.526.813,5.162-.532,2.5-1.707,4.4-2.688,4.4a.736.736,0,0,1-.154-.016c-1.01-.215-1.373-2.526-.813-5.162.532-2.5,1.707-4.4,2.689-4.4m0-.522c-1.495,0-2.706,2.5-3.2,4.815-.558,2.626-.32,5.454,1.215,5.781a1.272,1.272,0,0,0,.262.027c1.494,0,2.706-2.5,3.2-4.815.558-2.626.32-5.455-1.215-5.781a1.269,1.269,0,0,0-.262-.027Z" transform="translate(-115.507 -59.893)" fill="#99cf16"/>
              <path id="Path_33" data-name="Path 33" d="M127.973,63.2a.772.772,0,0,1,.317.065c.943.42.818,2.756-.278,5.218-.982,2.205-2.41,3.763-3.375,3.763a.771.771,0,0,1-.317-.065c-.943-.419-.818-2.756.278-5.218.982-2.205,2.41-3.763,3.375-3.763m0-.522c-1.408,0-2.949,2.045-3.851,4.073-1.092,2.452-1.447,5.269-.014,5.907a1.292,1.292,0,0,0,.529.11c1.408,0,2.949-2.045,3.851-4.073,1.092-2.452,1.447-5.269.014-5.907a1.293,1.293,0,0,0-.529-.11Z" transform="translate(-117.98 -61.519)" fill="#99cf16"/>
              <path id="Path_34" data-name="Path 34" d="M110.009,60.709c.981,0,2.156,1.9,2.688,4.4.561,2.636.2,4.947-.813,5.162a.738.738,0,0,1-.154.016c-.981,0-2.156-1.9-2.688-4.4-.56-2.637-.2-4.948.813-5.162a.737.737,0,0,1,.154-.016m0-.522a1.274,1.274,0,0,0-.262.027c-1.535.326-1.772,3.155-1.214,5.781.493,2.319,1.7,4.815,3.2,4.815a1.272,1.272,0,0,0,.262-.027c1.535-.327,1.773-3.155,1.214-5.781-.493-2.318-1.7-4.814-3.2-4.815Z" transform="translate(-108.258 -59.893)" fill="#99cf16"/>
            </g>
            <g id="Group_6" data-name="Group 6" transform="translate(1.724 1.161)">
              <path id="Path_35" data-name="Path 35" d="M86.073,78.843a8.7,8.7,0,0,1,3.944,1.31c2.334,1.348,3.808,3.165,3.292,4.058a1.322,1.322,0,0,1-1.217.488,8.7,8.7,0,0,1-3.944-1.31c-2.334-1.348-3.808-3.164-3.292-4.058a1.321,1.321,0,0,1,1.217-.488m0-.522a1.746,1.746,0,0,0-1.669.749c-.365.633-.144,1.5.624,2.448a10.526,10.526,0,0,0,2.859,2.323,9.251,9.251,0,0,0,4.2,1.38,1.746,1.746,0,0,0,1.669-.749c.784-1.359-1.159-3.428-3.483-4.771a9.248,9.248,0,0,0-4.2-1.38Z" transform="translate(-84.233 -72.882)" fill="#ffbf00"/>
              <path id="Path_36" data-name="Path 36" d="M90.43,72.536a7.413,7.413,0,0,1,4.1,2.161c2,1.8,3.067,3.887,2.377,4.654a1,1,0,0,1-.776.284,7.416,7.416,0,0,1-4.1-2.161c-2-1.8-3.067-3.887-2.377-4.654a1,1,0,0,1,.776-.284m0-.522a1.491,1.491,0,0,0-1.164.456c-1.05,1.166.42,3.594,2.415,5.391a7.807,7.807,0,0,0,4.45,2.295,1.491,1.491,0,0,0,1.164-.456c1.05-1.166-.42-3.595-2.415-5.391a7.809,7.809,0,0,0-4.45-2.295Z" transform="translate(-87.288 -68.768)" fill="#ffbf00"/>
              <path id="Path_37" data-name="Path 37" d="M96.191,67.216c.974,0,2.552,1.188,3.869,3,1.584,2.18,2.192,4.44,1.357,5.046a.849.849,0,0,1-.511.151c-.974,0-2.552-1.188-3.87-3-1.584-2.18-2.192-4.44-1.357-5.047a.851.851,0,0,1,.511-.151m0-.522a1.358,1.358,0,0,0-.817.25c-1.269.922-.336,3.6,1.242,5.775,1.419,1.954,3.1,3.216,4.292,3.216a1.359,1.359,0,0,0,.817-.25c.591-.429.742-1.314.426-2.491a10.53,10.53,0,0,0-1.667-3.284c-1.42-1.954-3.1-3.216-4.292-3.216Z" transform="translate(-91.112 -65.298)" fill="#ffbf00"/>
              <path id="Path_38" data-name="Path 38" d="M102.895,63.2c.965,0,2.393,1.558,3.375,3.763,1.1,2.462,1.221,4.8.278,5.218a.766.766,0,0,1-.317.065c-.965,0-2.393-1.558-3.375-3.763-1.1-2.462-1.221-4.8-.278-5.218a.772.772,0,0,1,.317-.065m0-.522a1.29,1.29,0,0,0-.529.11c-1.433.638-1.078,3.455.014,5.907.9,2.027,2.444,4.073,3.851,4.073a1.293,1.293,0,0,0,.529-.11c1.433-.638,1.078-3.455-.014-5.907-.9-2.027-2.443-4.073-3.851-4.073Z" transform="translate(-95.443 -62.68)" fill="#ffbf00"/>
            </g>
            <g id="Group_7" data-name="Group 7" transform="translate(0 8.973)">
              <path id="Path_39" data-name="Path 39" d="M88.716,102.185c1.109,0,1.9.279,2.08.822.319.981-1.5,2.452-4.064,3.285a10.5,10.5,0,0,1-3.139.554c-1.109,0-1.9-.279-2.08-.822-.319-.981,1.5-2.452,4.064-3.285a10.5,10.5,0,0,1,3.139-.554m0-.522a11.1,11.1,0,0,0-3.3.579,10.521,10.521,0,0,0-3.28,1.677c-.948.766-1.345,1.57-1.119,2.265.248.763,1.163,1.183,2.576,1.183a11.089,11.089,0,0,0,3.3-.579c2.553-.829,4.884-2.45,4.4-3.942-.248-.763-1.163-1.183-2.576-1.183Z" transform="translate(-80.371 -95.919)" fill="#ff5a00"/>
              <path id="Path_40" data-name="Path 40" d="M85.755,97.879c2.078,0,3.664.562,3.754,1.417.108,1.026-1.978,2.087-4.658,2.368a12.5,12.5,0,0,1-1.3.069c-2.078,0-3.664-.562-3.754-1.417-.108-1.026,1.978-2.086,4.658-2.368a12.4,12.4,0,0,1,1.295-.069m0-.522a13.016,13.016,0,0,0-1.349.072,10.527,10.527,0,0,0-3.557.959c-1.086.552-1.642,1.256-1.566,1.983.12,1.145,1.8,1.884,4.273,1.884a12.918,12.918,0,0,0,1.349-.072,10.512,10.512,0,0,0,3.557-.959c1.086-.552,1.642-1.256,1.566-1.983-.12-1.145-1.8-1.884-4.273-1.884Z" transform="translate(-79.276 -93.11)" fill="#ff5a00"/>
              <path id="Path_41" data-name="Path 41" d="M83.556,92.291a12.5,12.5,0,0,1,1.3.069c2.68.282,4.766,1.342,4.658,2.368-.09.856-1.675,1.417-3.754,1.417a12.5,12.5,0,0,1-1.3-.069c-2.681-.282-4.767-1.342-4.658-2.368.09-.856,1.675-1.417,3.754-1.417m0-.522c-2.475,0-4.152.74-4.272,1.884-.077.726.48,1.431,1.566,1.983a10.528,10.528,0,0,0,3.557.959,13.021,13.021,0,0,0,1.35.072c2.475,0,4.152-.74,4.272-1.884.076-.726-.48-1.431-1.566-1.983a10.512,10.512,0,0,0-3.557-.959,12.918,12.918,0,0,0-1.35-.072Z" transform="translate(-79.276 -89.465)" fill="#ff5a00"/>
              <path id="Path_42" data-name="Path 42" d="M83.593,85.666a10.5,10.5,0,0,1,3.139.554c2.564.833,4.383,2.3,4.064,3.285-.176.543-.971.822-2.08.822a10.489,10.489,0,0,1-3.139-.554c-2.564-.833-4.383-2.3-4.064-3.285.176-.543.971-.823,2.08-.822m0-.522c-1.413,0-2.328.42-2.576,1.183-.226.695.172,1.5,1.119,2.265a10.528,10.528,0,0,0,3.28,1.677,11.1,11.1,0,0,0,3.3.579c1.413,0,2.328-.42,2.576-1.183.485-1.492-1.846-3.113-4.4-3.942a11.1,11.1,0,0,0-3.3-.579Z" transform="translate(-80.371 -85.144)" fill="#ff5a00"/>
            </g>
            <g id="Group_8" data-name="Group 8" transform="translate(1.724 15.895)">
              <path id="Path_43" data-name="Path 43" d="M106.23,112.037a.771.771,0,0,1,.317.065c.943.42.818,2.756-.278,5.219-.982,2.205-2.41,3.763-3.375,3.763a.771.771,0,0,1-.317-.065c-.943-.42-.818-2.756.278-5.218.982-2.205,2.41-3.764,3.375-3.764m0-.522c-1.408,0-2.949,2.046-3.851,4.073-1.092,2.452-1.447,5.269-.014,5.907a1.292,1.292,0,0,0,.529.11c1.408,0,2.949-2.045,3.851-4.073,1.092-2.452,1.447-5.269.014-5.907a1.293,1.293,0,0,0-.529-.11Z" transform="translate(-95.443 -109.266)" fill="#f0047f"/>
              <path id="Path_44" data-name="Path 44" d="M100.907,110.464a.849.849,0,0,1,.511.151c.835.606.227,2.866-1.357,5.046-1.317,1.814-2.9,3-3.869,3a.849.849,0,0,1-.511-.151c-.835-.606-.227-2.866,1.357-5.046,1.318-1.813,2.9-3,3.87-3m0-.522c-1.188,0-2.872,1.262-4.292,3.216-1.578,2.172-2.511,4.853-1.242,5.775a1.359,1.359,0,0,0,.817.25c1.188,0,2.872-1.262,4.292-3.216a10.53,10.53,0,0,0,1.667-3.285c.316-1.177.165-2.061-.426-2.491a1.359,1.359,0,0,0-.817-.25Z" transform="translate(-91.112 -108.241)" fill="#f0047f"/>
              <path id="Path_45" data-name="Path 45" d="M96.131,108.306a1,1,0,0,1,.776.284c.691.767-.373,2.85-2.377,4.654a7.413,7.413,0,0,1-4.1,2.161,1,1,0,0,1-.776-.284c-.691-.767.373-2.85,2.376-4.654a7.411,7.411,0,0,1,4.1-2.161m0-.522a7.807,7.807,0,0,0-4.449,2.295c-1.995,1.8-3.465,4.225-2.415,5.391a1.491,1.491,0,0,0,1.164.456,7.807,7.807,0,0,0,4.45-2.295,10.526,10.526,0,0,0,2.314-2.866c.554-1.085.59-1.982.1-2.525a1.491,1.491,0,0,0-1.164-.456Z" transform="translate(-87.288 -106.833)" fill="#f0047f"/>
              <path id="Path_46" data-name="Path 46" d="M92.092,105.571a1.322,1.322,0,0,1,1.217.488c.516.893-.958,2.71-3.292,4.058a8.7,8.7,0,0,1-3.944,1.31,1.321,1.321,0,0,1-1.217-.488c-.516-.894.958-2.711,3.292-4.058a8.7,8.7,0,0,1,3.944-1.31m0-.522a9.251,9.251,0,0,0-4.2,1.38,10.527,10.527,0,0,0-2.859,2.323c-.767.946-.989,1.816-.624,2.448a1.746,1.746,0,0,0,1.669.749,9.248,9.248,0,0,0,4.2-1.38c2.325-1.342,4.268-3.412,3.483-4.771a1.747,1.747,0,0,0-1.669-.749Z" transform="translate(-84.233 -105.049)" fill="#f0047f"/>
            </g>
          </g>
          <path id="Path_47" data-name="Path 47" d="M42.353,83.863a10.251,10.251,0,0,1,.8-4.129,9.486,9.486,0,0,1,2.2-3.164,9.713,9.713,0,0,1,3.284-2.024,11.374,11.374,0,0,1,4.035-.711,12.085,12.085,0,0,1,4.156.711A9.622,9.622,0,0,1,60.1,76.463l-3.915,4.719a3.458,3.458,0,0,0-1.341-1.059,4.33,4.33,0,0,0-1.8-.362,3.975,3.975,0,0,0-1.5.281,3.532,3.532,0,0,0-1.22.818,3.789,3.789,0,0,0-.818,1.3,4.684,4.684,0,0,0-.295,1.7,4.308,4.308,0,0,0,.308,1.676,4.015,4.015,0,0,0,.831,1.273,3.524,3.524,0,0,0,1.22.818,3.9,3.9,0,0,0,1.474.281,3.721,3.721,0,0,0,1.89-.456,4.007,4.007,0,0,0,1.247-1.072L60.1,91.075a9.455,9.455,0,0,1-3.164,2.051,11.941,11.941,0,0,1-8.3.04,9.77,9.77,0,0,1-3.284-2.051,9.669,9.669,0,0,1-2.2-3.164A10.085,10.085,0,0,1,42.353,83.863Z" transform="translate(-42.353 -68.795)" fill="#187c9c"/>
        </g>
      </g>
      <path id="Path_20184" data-name="Path 20184" d="M6.74-25.307a4.278,4.278,0,0,0,.881-.081,3.63,3.63,0,0,0,.669-.2,3.064,3.064,0,0,0,.5-.262q.208-.138.358-.262t.258-.2a.342.342,0,0,1,.2-.081.266.266,0,0,1,.127.027.259.259,0,0,1,.081.065l.554.692a5.182,5.182,0,0,1-1.677,1.231,5.236,5.236,0,0,1-2.208.439A4.284,4.284,0,0,1,4.69-24.3,3.816,3.816,0,0,1,3.355-25.3a4.385,4.385,0,0,1-.835-1.516,6.187,6.187,0,0,1-.288-1.935,7.765,7.765,0,0,1,.2-1.808,6.826,6.826,0,0,1,.581-1.577,6.093,6.093,0,0,1,.9-1.3,5.517,5.517,0,0,1,1.173-.977,5.563,5.563,0,0,1,1.392-.615,5.6,5.6,0,0,1,1.562-.215,5.152,5.152,0,0,1,1.077.1,3.79,3.79,0,0,1,.877.3,3.466,3.466,0,0,1,.715.465,4.316,4.316,0,0,1,.592.612l-.539.654a.688.688,0,0,1-.15.138.375.375,0,0,1-.212.054.442.442,0,0,1-.3-.15,3.151,3.151,0,0,0-.412-.327,3.034,3.034,0,0,0-.665-.327,3.131,3.131,0,0,0-1.062-.15,3.807,3.807,0,0,0-1.623.35,3.811,3.811,0,0,0-1.308,1,4.83,4.83,0,0,0-.873,1.573,6.305,6.305,0,0,0-.319,2.069,4.81,4.81,0,0,0,.215,1.492,3.355,3.355,0,0,0,.6,1.123,2.609,2.609,0,0,0,.915.708A2.727,2.727,0,0,0,6.74-25.307Zm9.978-5.555a3.891,3.891,0,0,0-.592-.046,2.7,2.7,0,0,0-1.285.319,3.414,3.414,0,0,0-1.042.858,4.207,4.207,0,0,0-.7,1.25,4.338,4.338,0,0,0-.258,1.489,2.465,2.465,0,0,0,.292,1.342.952.952,0,0,0,.846.442,1.266,1.266,0,0,0,.712-.235,2.8,2.8,0,0,0,.662-.646,5.51,5.51,0,0,0,.577-.973,8.865,8.865,0,0,0,.465-1.223ZM16.2-26.023a6.254,6.254,0,0,1-.581.85,4.048,4.048,0,0,1-.662.65,2.861,2.861,0,0,1-.739.415,2.265,2.265,0,0,1-.8.146,1.939,1.939,0,0,1-.842-.181,1.8,1.8,0,0,1-.654-.531,2.549,2.549,0,0,1-.423-.865,4.248,4.248,0,0,1-.15-1.185,5.372,5.372,0,0,1,.173-1.358,5.366,5.366,0,0,1,.5-1.25,5.619,5.619,0,0,1,.773-1.077,5.009,5.009,0,0,1,1-.846,4.832,4.832,0,0,1,1.2-.55,4.571,4.571,0,0,1,1.342-.2,6.1,6.1,0,0,1,1,.081,4.308,4.308,0,0,1,.966.281l-.939,7.57h-.785a.44.44,0,0,1-.392-.15.644.644,0,0,1-.1-.365Zm3.739.446V-25.7q0-.073.012-.212t.038-.369q.027-.231.073-.592l.469-3.8h-.839a.243.243,0,0,1-.188-.081.287.287,0,0,1-.05-.242l.069-.608,1.192-.177.6-2.331a.4.4,0,0,1,.127-.2.333.333,0,0,1,.219-.073h.8l-.331,2.623h2.008l-.123,1.092H22l-.462,3.724q-.038.315-.062.508t-.035.3q-.012.112-.015.158t0,.069a.761.761,0,0,0,.177.546.62.62,0,0,0,.469.185.944.944,0,0,0,.335-.054,1.515,1.515,0,0,0,.25-.119q.108-.065.181-.119a.233.233,0,0,1,.135-.054.155.155,0,0,1,.108.035.379.379,0,0,1,.077.112l.315.723a2.928,2.928,0,0,1-.877.523,2.726,2.726,0,0,1-.977.185,1.7,1.7,0,0,1-1.216-.419A1.629,1.629,0,0,1,19.934-25.577Zm10.04-5.285a3.891,3.891,0,0,0-.592-.046,2.7,2.7,0,0,0-1.285.319,3.414,3.414,0,0,0-1.042.858,4.207,4.207,0,0,0-.7,1.25,4.338,4.338,0,0,0-.258,1.489,2.465,2.465,0,0,0,.292,1.342.952.952,0,0,0,.846.442,1.266,1.266,0,0,0,.712-.235,2.8,2.8,0,0,0,.662-.646,5.51,5.51,0,0,0,.577-.973,8.865,8.865,0,0,0,.465-1.223Zm-.523,4.839a6.254,6.254,0,0,1-.581.85,4.049,4.049,0,0,1-.662.65,2.861,2.861,0,0,1-.739.415,2.265,2.265,0,0,1-.8.146,1.939,1.939,0,0,1-.842-.181,1.8,1.8,0,0,1-.654-.531,2.55,2.55,0,0,1-.423-.865,4.248,4.248,0,0,1-.15-1.185,5.372,5.372,0,0,1,.173-1.358,5.366,5.366,0,0,1,.5-1.25,5.62,5.62,0,0,1,.773-1.077,5.009,5.009,0,0,1,1-.846,4.831,4.831,0,0,1,1.2-.55,4.571,4.571,0,0,1,1.342-.2,6.1,6.1,0,0,1,1,.081,4.308,4.308,0,0,1,.966.281l-.939,7.57H29.82a.44.44,0,0,1-.392-.15.644.644,0,0,1-.1-.365ZM32.6-24.069l1.377-11.355h1.477L34.074-24.069Zm10.771-7.816-5.247,10.1a.557.557,0,0,1-.515.339H36.5l1.708-3.123L36.19-31.885h1.246a.357.357,0,0,1,.262.085.5.5,0,0,1,.123.215l1.185,4.693q.038.169.065.335t.042.342q.069-.177.142-.346t.158-.339l2.331-4.693a.517.517,0,0,1,.181-.212.428.428,0,0,1,.242-.081Zm5.078,1.308a.519.519,0,0,1-.135.142.3.3,0,0,1-.165.042.44.44,0,0,1-.242-.085q-.127-.085-.308-.185a2.6,2.6,0,0,0-.435-.185,1.96,1.96,0,0,0-.615-.085,1.867,1.867,0,0,0-.608.092,1.524,1.524,0,0,0-.465.25,1.074,1.074,0,0,0-.3.373,1.032,1.032,0,0,0-.1.454.69.69,0,0,0,.138.439,1.314,1.314,0,0,0,.362.312,3.063,3.063,0,0,0,.512.242q.289.108.589.227t.589.265a2.151,2.151,0,0,1,.512.358,1.647,1.647,0,0,1,.362.512,1.7,1.7,0,0,1,.138.715,2.59,2.59,0,0,1-.215,1.042,2.641,2.641,0,0,1-.619.877,2.991,2.991,0,0,1-.973.6,3.475,3.475,0,0,1-1.277.223,3.148,3.148,0,0,1-1.331-.269,2.764,2.764,0,0,1-.946-.685l.369-.577a.449.449,0,0,1,.392-.223.4.4,0,0,1,.258.108q.127.108.312.235a2.33,2.33,0,0,0,.454.235,1.886,1.886,0,0,0,.692.108,1.848,1.848,0,0,0,.65-.108,1.5,1.5,0,0,0,.489-.288,1.214,1.214,0,0,0,.3-.419,1.258,1.258,0,0,0,.1-.508.813.813,0,0,0-.138-.481,1.184,1.184,0,0,0-.362-.331,2.872,2.872,0,0,0-.512-.238q-.288-.1-.585-.215t-.585-.246a1.963,1.963,0,0,1-.512-.342,1.613,1.613,0,0,1-.362-.5,1.69,1.69,0,0,1-.138-.719,2.421,2.421,0,0,1,.2-.966,2.538,2.538,0,0,1,.573-.827,2.779,2.779,0,0,1,.908-.577A3.22,3.22,0,0,1,46.63-32a3.166,3.166,0,0,1,1.266.235,2.854,2.854,0,0,1,.935.642Zm3.593-1.308-.946,7.816H49.615l.939-7.816Zm.508-2.416a.921.921,0,0,1-.088.4,1.161,1.161,0,0,1-.231.331,1.058,1.058,0,0,1-.327.223.932.932,0,0,1-.377.081.88.88,0,0,1-.369-.081.993.993,0,0,1-.312-.223,1.117,1.117,0,0,1-.215-.331,1,1,0,0,1-.081-.4,1,1,0,0,1,.081-.4,1.079,1.079,0,0,1,.219-.331,1.081,1.081,0,0,1,.319-.227.871.871,0,0,1,.373-.085.932.932,0,0,1,.377.081,1.013,1.013,0,0,1,.323.223,1.138,1.138,0,0,1,.223.331A.975.975,0,0,1,52.546-34.3Zm2.693,4.285A4.765,4.765,0,0,1,56.631-31.5a2.872,2.872,0,0,1,1.585-.5,1.88,1.88,0,0,1,.873.2,1.581,1.581,0,0,1,.619.573,2.444,2.444,0,0,1,.327.927,4.393,4.393,0,0,1,0,1.258l-.585,4.978h-1.5l.592-4.978a2.352,2.352,0,0,0-.1-1.3.8.8,0,0,0-.781-.412,1.535,1.535,0,0,0-.723.2A2.836,2.836,0,0,0,56.22-30a4.59,4.59,0,0,0-.639.865,5.687,5.687,0,0,0-.5,1.131l-.439,3.939h-1.5l.931-7.832h.754a.53.53,0,0,1,.377.123.506.506,0,0,1,.131.385Zm10.555,6.093a1.918,1.918,0,0,0-.027-.331,1.773,1.773,0,0,0-.073-.285,7.855,7.855,0,0,0-1.708-.131,4.062,4.062,0,0,0-1.181.212,1.528,1.528,0,0,0-.685.45.938.938,0,0,0-.219.592.9.9,0,0,0,.439.808,2.409,2.409,0,0,0,1.277.277,2.952,2.952,0,0,0,.889-.127,2.247,2.247,0,0,0,.689-.342,1.568,1.568,0,0,0,.442-.508A1.278,1.278,0,0,0,65.794-23.923Zm-1.462-3.708a1.379,1.379,0,0,0,.7-.177,1.647,1.647,0,0,0,.515-.462,2.114,2.114,0,0,0,.315-.642,2.706,2.706,0,0,0,.115-.727,1.374,1.374,0,0,0-.327-.992,1.2,1.2,0,0,0-.9-.339,1.433,1.433,0,0,0-.7.165,1.591,1.591,0,0,0-.512.439,1.969,1.969,0,0,0-.315.631,2.535,2.535,0,0,0-.108.735,1.466,1.466,0,0,0,.319,1.016A1.145,1.145,0,0,0,64.332-27.631Zm4.208-3.977-.069.5a.445.445,0,0,1-.323.4l-.923.185a2.112,2.112,0,0,1,.092.385,2.993,2.993,0,0,1,.031.439,2.747,2.747,0,0,1-.092.681,3.11,3.11,0,0,1-.212.558,5.094,5.094,0,0,1-.273.481q-.146.227-.273.454a2.957,2.957,0,0,0-.212.469,1.588,1.588,0,0,0-.085.527,1.16,1.16,0,0,0,.15.581q.15.265.331.546a5.015,5.015,0,0,1,.331.6,1.794,1.794,0,0,1,.15.762,2.372,2.372,0,0,1-.262,1.054,2.691,2.691,0,0,1-.727.881,3.616,3.616,0,0,1-1.154.6,4.916,4.916,0,0,1-1.535.223,5.027,5.027,0,0,1-1.242-.142,3.129,3.129,0,0,1-.95-.4,1.915,1.915,0,0,1-.608-.619,1.52,1.52,0,0,1-.215-.792,1.806,1.806,0,0,1,.212-.885,2.065,2.065,0,0,1,.573-.658,3.181,3.181,0,0,1,.839-.446,5.271,5.271,0,0,1,1.008-.254,6.854,6.854,0,0,1,1.081-.077,7.57,7.57,0,0,1,1.066.081,1.412,1.412,0,0,1-.1-.277,1.4,1.4,0,0,1-.035-.323,1.885,1.885,0,0,1,.069-.489,2.868,2.868,0,0,1,.223-.558,2.325,2.325,0,0,1-.654.308,2.946,2.946,0,0,1-.839.108,2.382,2.382,0,0,1-.839-.146,1.952,1.952,0,0,1-.689-.435A2.06,2.06,0,0,1,61.92-28a2.693,2.693,0,0,1-.173-1.008,3.033,3.033,0,0,1,.208-1.1,2.872,2.872,0,0,1,.608-.958,3.012,3.012,0,0,1,.992-.677A3.385,3.385,0,0,1,64.917-32a3.194,3.194,0,0,1,.792.1,2.281,2.281,0,0,1,.685.3Zm9.163.746a3.891,3.891,0,0,0-.592-.046,2.7,2.7,0,0,0-1.285.319,3.414,3.414,0,0,0-1.042.858,4.207,4.207,0,0,0-.7,1.25,4.338,4.338,0,0,0-.258,1.489,2.465,2.465,0,0,0,.292,1.342.952.952,0,0,0,.846.442,1.266,1.266,0,0,0,.712-.235,2.8,2.8,0,0,0,.662-.646,5.51,5.51,0,0,0,.577-.973,8.866,8.866,0,0,0,.465-1.223Zm-.523,4.839a6.256,6.256,0,0,1-.581.85,4.048,4.048,0,0,1-.662.65,2.861,2.861,0,0,1-.739.415,2.265,2.265,0,0,1-.8.146,1.939,1.939,0,0,1-.842-.181,1.8,1.8,0,0,1-.654-.531,2.549,2.549,0,0,1-.423-.865,4.249,4.249,0,0,1-.15-1.185,5.372,5.372,0,0,1,.173-1.358,5.365,5.365,0,0,1,.5-1.25,5.619,5.619,0,0,1,.773-1.077,5.01,5.01,0,0,1,1-.846,4.832,4.832,0,0,1,1.2-.55,4.57,4.57,0,0,1,1.342-.2,6.1,6.1,0,0,1,1,.081,4.308,4.308,0,0,1,.966.281l-.939,7.57h-.785a.44.44,0,0,1-.392-.15.644.644,0,0,1-.1-.365Zm8.74-3.754a6.444,6.444,0,0,1,.662-1.1,3.3,3.3,0,0,1,.739-.731,1.846,1.846,0,0,1,.8-.323,1.494,1.494,0,0,1,.827.127l-.269,1.446a1.55,1.55,0,0,0-1.739.269,5,5,0,0,0-1.208,2.477L85.3-24.069H83.827l.946-7.832h.754a.53.53,0,0,1,.377.123.506.506,0,0,1,.131.385Zm6.955-1.146a1.9,1.9,0,0,0-.846.188,2.33,2.33,0,0,0-.692.523,3.174,3.174,0,0,0-.523.785,4.752,4.752,0,0,0-.338.981,15.287,15.287,0,0,0,1.812-.323,4.407,4.407,0,0,0,1.05-.389,1.172,1.172,0,0,0,.489-.45,1.12,1.12,0,0,0,.119-.508.726.726,0,0,0-.058-.273.742.742,0,0,0-.185-.262.984.984,0,0,0-.331-.2A1.411,1.411,0,0,0,92.874-30.923Zm2.231,5.408a7.778,7.778,0,0,1-.777.7,4.4,4.4,0,0,1-.773.485,3.5,3.5,0,0,1-.827.281,4.669,4.669,0,0,1-.939.088,3.111,3.111,0,0,1-1.212-.227,2.554,2.554,0,0,1-.919-.642,2.871,2.871,0,0,1-.581-1,4.014,4.014,0,0,1-.2-1.319,5.767,5.767,0,0,1,.127-1.2,5.366,5.366,0,0,1,.373-1.131,5.219,5.219,0,0,1,.6-1,4.025,4.025,0,0,1,.808-.8,3.718,3.718,0,0,1,1-.523,3.585,3.585,0,0,1,1.177-.188A2.881,2.881,0,0,1,94-31.824a2.264,2.264,0,0,1,.727.435,1.72,1.72,0,0,1,.427.589,1.6,1.6,0,0,1,.138.631,2.108,2.108,0,0,1-.208.935,1.947,1.947,0,0,1-.758.769,5.624,5.624,0,0,1-1.512.6,16.534,16.534,0,0,1-2.47.408,1.252,1.252,0,0,0-.008.138v.138a2.311,2.311,0,0,0,.435,1.523,1.619,1.619,0,0,0,1.312.515,2.606,2.606,0,0,0,.646-.073,2.622,2.622,0,0,0,.5-.181,2.436,2.436,0,0,0,.389-.235l.312-.235a2.893,2.893,0,0,1,.265-.181.491.491,0,0,1,.254-.073.27.27,0,0,1,.15.042.779.779,0,0,1,.127.1Zm6.247-5.062a.519.519,0,0,1-.135.142.3.3,0,0,1-.165.042.44.44,0,0,1-.242-.085q-.127-.085-.308-.185a2.6,2.6,0,0,0-.435-.185,1.96,1.96,0,0,0-.615-.085,1.868,1.868,0,0,0-.608.092,1.524,1.524,0,0,0-.465.25,1.074,1.074,0,0,0-.3.373,1.032,1.032,0,0,0-.1.454.69.69,0,0,0,.138.439,1.314,1.314,0,0,0,.362.312,3.063,3.063,0,0,0,.512.242q.288.108.589.227t.589.265a2.151,2.151,0,0,1,.512.358,1.647,1.647,0,0,1,.362.512,1.7,1.7,0,0,1,.138.715,2.59,2.59,0,0,1-.215,1.042,2.641,2.641,0,0,1-.619.877,2.991,2.991,0,0,1-.973.6,3.475,3.475,0,0,1-1.277.223,3.147,3.147,0,0,1-1.331-.269,2.764,2.764,0,0,1-.946-.685l.369-.577a.449.449,0,0,1,.392-.223.4.4,0,0,1,.258.108q.127.108.312.235a2.331,2.331,0,0,0,.454.235,1.886,1.886,0,0,0,.692.108,1.849,1.849,0,0,0,.65-.108,1.5,1.5,0,0,0,.489-.288,1.214,1.214,0,0,0,.3-.419,1.258,1.258,0,0,0,.1-.508.813.813,0,0,0-.138-.481,1.184,1.184,0,0,0-.362-.331,2.872,2.872,0,0,0-.512-.238q-.289-.1-.585-.215t-.585-.246a1.963,1.963,0,0,1-.512-.342,1.613,1.613,0,0,1-.362-.5,1.69,1.69,0,0,1-.138-.719,2.421,2.421,0,0,1,.2-.966,2.538,2.538,0,0,1,.573-.827,2.779,2.779,0,0,1,.908-.577A3.22,3.22,0,0,1,99.537-32a3.166,3.166,0,0,1,1.266.235,2.854,2.854,0,0,1,.935.642Zm3.593-1.308L104-24.069h-1.477l.939-7.816Zm.508-2.416a.921.921,0,0,1-.088.4,1.161,1.161,0,0,1-.231.331,1.058,1.058,0,0,1-.327.223.932.932,0,0,1-.377.081.88.88,0,0,1-.369-.081.993.993,0,0,1-.312-.223,1.117,1.117,0,0,1-.215-.331,1,1,0,0,1-.081-.4,1,1,0,0,1,.081-.4,1.08,1.08,0,0,1,.219-.331,1.081,1.081,0,0,1,.319-.227.871.871,0,0,1,.373-.085.932.932,0,0,1,.377.081,1.013,1.013,0,0,1,.323.223,1.138,1.138,0,0,1,.223.331A.975.975,0,0,1,105.453-34.3Zm.631,10.232,1.377-11.355h1.477l-1.377,11.355Zm5.978-7.816-.946,7.816h-1.477l.939-7.816Zm.508-2.416a.921.921,0,0,1-.088.4,1.162,1.162,0,0,1-.231.331,1.058,1.058,0,0,1-.327.223.932.932,0,0,1-.377.081.88.88,0,0,1-.369-.081.993.993,0,0,1-.312-.223,1.117,1.117,0,0,1-.215-.331,1,1,0,0,1-.081-.4,1,1,0,0,1,.081-.4,1.079,1.079,0,0,1,.219-.331,1.081,1.081,0,0,1,.319-.227.871.871,0,0,1,.373-.085.932.932,0,0,1,.377.081,1.012,1.012,0,0,1,.323.223,1.138,1.138,0,0,1,.223.331A.975.975,0,0,1,112.569-34.3Zm4.593,3.377a1.9,1.9,0,0,0-.846.188,2.33,2.33,0,0,0-.692.523,3.174,3.174,0,0,0-.523.785,4.752,4.752,0,0,0-.338.981,15.287,15.287,0,0,0,1.812-.323,4.408,4.408,0,0,0,1.05-.389,1.172,1.172,0,0,0,.489-.45,1.12,1.12,0,0,0,.119-.508.726.726,0,0,0-.058-.273.741.741,0,0,0-.185-.262.984.984,0,0,0-.331-.2A1.411,1.411,0,0,0,117.162-30.923Zm2.231,5.408a7.774,7.774,0,0,1-.777.7,4.394,4.394,0,0,1-.773.485,3.5,3.5,0,0,1-.827.281,4.669,4.669,0,0,1-.939.088,3.111,3.111,0,0,1-1.212-.227,2.554,2.554,0,0,1-.919-.642,2.872,2.872,0,0,1-.581-1,4.014,4.014,0,0,1-.2-1.319,5.765,5.765,0,0,1,.127-1.2,5.367,5.367,0,0,1,.373-1.131,5.22,5.22,0,0,1,.6-1,4.024,4.024,0,0,1,.808-.8,3.717,3.717,0,0,1,1-.523,3.585,3.585,0,0,1,1.177-.188,2.881,2.881,0,0,1,1.039.169,2.264,2.264,0,0,1,.727.435,1.72,1.72,0,0,1,.427.589,1.6,1.6,0,0,1,.138.631,2.108,2.108,0,0,1-.208.935,1.948,1.948,0,0,1-.758.769,5.623,5.623,0,0,1-1.512.6,16.534,16.534,0,0,1-2.47.408,1.255,1.255,0,0,0-.008.138v.138a2.311,2.311,0,0,0,.435,1.523,1.62,1.62,0,0,0,1.312.515,2.606,2.606,0,0,0,.646-.073,2.623,2.623,0,0,0,.5-.181,2.435,2.435,0,0,0,.388-.235l.312-.235a2.89,2.89,0,0,1,.265-.181.491.491,0,0,1,.254-.073.27.27,0,0,1,.15.042.778.778,0,0,1,.127.1Zm3.262-4.5a4.765,4.765,0,0,1,1.392-1.485,2.872,2.872,0,0,1,1.585-.5,1.88,1.88,0,0,1,.873.2,1.581,1.581,0,0,1,.619.573,2.444,2.444,0,0,1,.327.927,4.392,4.392,0,0,1,0,1.258l-.585,4.978h-1.5l.592-4.978a2.352,2.352,0,0,0-.1-1.3.8.8,0,0,0-.781-.412,1.535,1.535,0,0,0-.723.2,2.836,2.836,0,0,0-.712.554,4.589,4.589,0,0,0-.639.865,5.684,5.684,0,0,0-.5,1.131l-.439,3.939h-1.5l.931-7.832h.754a.53.53,0,0,1,.377.123.506.506,0,0,1,.131.385Zm6.624,4.439V-25.7q0-.073.012-.212t.038-.369q.027-.231.073-.592l.469-3.8h-.839a.242.242,0,0,1-.188-.081.287.287,0,0,1-.05-.242l.069-.608,1.192-.177.6-2.331a.4.4,0,0,1,.127-.2.333.333,0,0,1,.219-.073h.8l-.331,2.623h2.008l-.123,1.092h-2.016l-.462,3.724q-.038.315-.062.508t-.035.3q-.012.112-.015.158t0,.069a.761.761,0,0,0,.177.546.62.62,0,0,0,.469.185.944.944,0,0,0,.335-.054,1.515,1.515,0,0,0,.25-.119q.108-.065.181-.119a.233.233,0,0,1,.135-.054.155.155,0,0,1,.108.035.379.379,0,0,1,.077.112l.315.723a2.929,2.929,0,0,1-.877.523,2.726,2.726,0,0,1-.977.185,1.7,1.7,0,0,1-1.216-.419A1.629,1.629,0,0,1,129.279-25.577Zm19.2-6.308-3.27,7.816h-1.146q-.208,0-.238-.285l-.9-5.093q-.023-.131-.035-.258t-.027-.258q-.038.131-.088.265t-.1.265l-2.154,5.078q-.115.285-.339.285h-1.1l-1.362-7.816h1.123a.407.407,0,0,1,.265.085.348.348,0,0,1,.127.215l.654,4.8q.023.292.035.562t.019.539q.1-.269.208-.539t.215-.562l2.031-4.831a.426.426,0,0,1,.162-.212.433.433,0,0,1,.254-.081h.631a.376.376,0,0,1,.25.081.314.314,0,0,1,.112.212l.823,4.831q.038.285.073.562t.058.546q.077-.269.162-.542t.185-.565l1.862-4.8a.447.447,0,0,1,.162-.215.431.431,0,0,1,.262-.085ZM151.7-25.13a1.725,1.725,0,0,0,.981-.3,2.585,2.585,0,0,0,.754-.8,4.119,4.119,0,0,0,.481-1.154,5.443,5.443,0,0,0,.169-1.369,2.543,2.543,0,0,0-.4-1.569,1.39,1.39,0,0,0-1.169-.515,1.72,1.72,0,0,0-.985.3,2.618,2.618,0,0,0-.75.792,4.064,4.064,0,0,0-.481,1.15,5.443,5.443,0,0,0-.169,1.369,2.566,2.566,0,0,0,.4,1.566A1.378,1.378,0,0,0,151.7-25.13Zm-.138,1.169a3.093,3.093,0,0,1-1.177-.219,2.59,2.59,0,0,1-.927-.635,2.938,2.938,0,0,1-.608-1.019,4.032,4.032,0,0,1-.219-1.381,5.511,5.511,0,0,1,.312-1.866A4.949,4.949,0,0,1,149.8-30.6a4.023,4.023,0,0,1,1.277-1.023A3.442,3.442,0,0,1,152.659-32a3.092,3.092,0,0,1,1.177.219,2.589,2.589,0,0,1,.927.635,2.939,2.939,0,0,1,.608,1.019,4.008,4.008,0,0,1,.219,1.373,5.487,5.487,0,0,1-.312,1.858,5,5,0,0,1-.854,1.527,4.047,4.047,0,0,1-1.277,1.031A3.414,3.414,0,0,1,151.566-23.961Zm7.147-5.816a6.444,6.444,0,0,1,.662-1.1,3.3,3.3,0,0,1,.739-.731,1.846,1.846,0,0,1,.8-.323,1.494,1.494,0,0,1,.827.127l-.269,1.446a1.55,1.55,0,0,0-1.739.269,5,5,0,0,0-1.208,2.477l-.431,3.547h-1.469l.946-7.832h.754a.53.53,0,0,1,.377.123.506.506,0,0,1,.131.385Zm3.254,5.708,1.377-11.355h1.477l-1.377,11.355Zm8.955-6.085a1.558,1.558,0,0,0-.677-.531,2.136,2.136,0,0,0-.785-.154,1.683,1.683,0,0,0-.727.162,2.252,2.252,0,0,0-.623.439,3.2,3.2,0,0,0-.5.654,4.657,4.657,0,0,0-.377.808,5.431,5.431,0,0,0-.235.892,5.259,5.259,0,0,0-.081.908,2.4,2.4,0,0,0,.315,1.354,1.018,1.018,0,0,0,.892.462,1.359,1.359,0,0,0,.719-.227,2.966,2.966,0,0,0,.7-.627,5.558,5.558,0,0,0,.627-.946,7.649,7.649,0,0,0,.508-1.192Zm2.123-5.27-1.4,11.355h-.785a.44.44,0,0,1-.392-.15.644.644,0,0,1-.1-.365l.131-1.5a6.206,6.206,0,0,1-.635.877,4.568,4.568,0,0,1-.715.669,3.132,3.132,0,0,1-.777.427,2.357,2.357,0,0,1-.827.15,1.861,1.861,0,0,1-1.55-.723,3.441,3.441,0,0,1-.565-2.146,6.12,6.12,0,0,1,.135-1.273,6.622,6.622,0,0,1,.377-1.208,5.852,5.852,0,0,1,.585-1.066,4.476,4.476,0,0,1,.765-.854,3.435,3.435,0,0,1,.912-.565,2.64,2.64,0,0,1,1.027-.2,2.434,2.434,0,0,1,1.035.215,2.211,2.211,0,0,1,.789.608l.523-4.247Z" transform="translate(-1.359 91.015)" stroke="#0f0f0f" stroke-width="0.5"/>
    </g>
  </g>
</svg>
